<svg xmlns="http://www.w3.org/2000/svg" xmlns:xlink="http://www.w3.org/1999/xlink" width="500" zoomAndPan="magnify" viewBox="0 0 375 374.999991" height="500" preserveAspectRatio="xMidYMid meet" version="1.0"><path fill="#ff6c26" d="M 327.246094 257.777344 C 310.984375 266.257812 226.769531 300.882812 208.84375 310.226562 C 190.910156 319.578125 180.960938 319.476562 166.792969 312.714844 C 152.628906 305.949219 63.003906 269.746094 46.871094 262.03125 C 38.785156 258.171875 34.546875 254.921875 34.546875 251.839844 L 34.546875 221.046875 C 34.546875 221.046875 151.21875 195.648438 170.054688 188.894531 C 188.890625 182.140625 195.429688 181.886719 211.460938 187.765625 C 227.492188 193.640625 323.335938 210.929688 339.175781 216.730469 L 339.164062 247.089844 C 339.175781 250.136719 335.519531 253.476562 327.246094 257.777344 Z M 327.246094 257.777344 " fill-opacity="1" fill-rule="nonzero"/><path fill="#0f978e" d="M 327.230469 227.175781 C 310.972656 235.640625 226.769531 270.269531 208.832031 279.621094 C 190.910156 288.976562 180.945312 288.875 166.78125 282.109375 C 152.617188 275.332031 63.003906 239.132812 46.859375 231.414062 C 30.714844 223.699219 30.382812 218.390625 46.238281 212.171875 C 62.089844 205.964844 151.21875 170.996094 170.054688 164.230469 C 188.890625 157.480469 195.429688 157.226562 211.449219 163.101562 C 227.480469 168.980469 311.1875 202.296875 327.027344 208.097656 C 342.882812 213.925781 343.492188 218.695312 327.230469 227.175781 Z M 327.230469 227.175781 " fill-opacity="1" fill-rule="nonzero"/><path fill="#ff6c26" d="M 327.246094 207.957031 C 310.984375 216.4375 226.769531 251.0625 208.84375 260.40625 C 190.910156 269.746094 180.960938 269.660156 166.792969 262.894531 C 152.628906 256.128906 63.003906 219.929688 46.871094 212.210938 C 38.785156 208.351562 34.546875 205.101562 34.546875 202.019531 L 34.546875 171.226562 C 34.546875 171.226562 151.21875 145.828125 170.054688 139.074219 C 188.890625 132.320312 195.429688 132.066406 211.460938 137.945312 C 227.492188 143.808594 323.335938 161.109375 339.175781 166.910156 L 339.164062 197.269531 C 339.175781 200.304688 335.519531 203.644531 327.246094 207.957031 Z M 327.246094 207.957031 " fill-opacity="1" fill-rule="nonzero"/><path fill="#0f978e" d="M 327.230469 177.355469 C 310.972656 185.835938 226.769531 220.449219 208.832031 229.804688 C 190.910156 239.144531 180.945312 239.054688 166.78125 232.289062 C 152.617188 225.527344 63.003906 189.324219 46.859375 181.609375 C 30.714844 173.890625 30.382812 168.585938 46.238281 162.367188 C 62.089844 156.144531 151.21875 121.175781 170.054688 114.425781 C 188.890625 107.671875 195.429688 107.417969 211.449219 113.296875 C 227.480469 119.171875 311.1875 152.476562 327.027344 158.292969 C 342.882812 164.09375 343.492188 168.878906 327.230469 177.355469 Z M 327.230469 177.355469 " fill-opacity="1" fill-rule="nonzero"/><path fill="#ff6c26" d="M 327.246094 156.285156 C 310.984375 164.765625 226.769531 199.390625 208.84375 208.734375 C 190.910156 218.074219 180.960938 217.984375 166.792969 211.222656 C 152.628906 204.457031 63.003906 168.242188 46.871094 160.539062 C 38.785156 156.679688 34.546875 153.429688 34.546875 150.359375 L 34.546875 119.566406 C 34.546875 119.566406 151.21875 94.167969 170.054688 87.414062 C 188.890625 80.648438 195.429688 80.40625 211.460938 86.285156 C 227.492188 92.148438 323.335938 109.4375 339.175781 115.238281 L 339.164062 145.597656 C 339.175781 148.644531 335.519531 151.984375 327.246094 156.285156 Z M 327.246094 156.285156 " fill-opacity="1" fill-rule="nonzero"/><path fill="#0f978e" d="M 327.230469 125.683594 C 310.972656 134.164062 226.769531 168.789062 208.832031 178.128906 C 190.910156 187.472656 180.945312 187.382812 166.78125 180.617188 C 152.628906 173.839844 63.003906 137.640625 46.859375 129.921875 C 30.714844 122.207031 30.382812 116.898438 46.238281 110.679688 C 62.089844 104.488281 151.21875 69.519531 170.054688 62.753906 C 188.890625 56 195.429688 55.746094 211.449219 61.621094 C 227.480469 67.5 311.1875 100.816406 327.027344 106.617188 C 342.882812 112.417969 343.492188 117.203125 327.230469 125.683594 Z M 327.230469 125.683594 " fill-opacity="1" fill-rule="nonzero"/><path fill="#0f978e" d="M 224.089844 95.726562 L 197.902344 98.445312 L 192.039062 112.558594 L 182.570312 96.820312 L 152.324219 94.089844 L 174.890625 85.953125 L 168.125 73.464844 L 189.261719 81.726562 L 209.175781 75.203125 L 203.792969 88.125 Z M 190.464844 164.167969 L 141.585938 143.898438 L 211.625 133.148438 Z M 122.699219 103.574219 C 143.375 103.574219 160.128906 110.070312 160.128906 118.082031 C 160.128906 126.089844 143.375 132.589844 122.699219 132.589844 C 102.023438 132.589844 85.269531 126.089844 85.269531 118.082031 C 85.269531 110.070312 102.023438 103.574219 122.699219 103.574219 Z M 122.699219 103.574219 " fill-opacity="1" fill-rule="nonzero"/><path fill="#0f978e" d="M 255.035156 99.585938 L 296.488281 115.972656 L 255.074219 132.335938 Z M 255.035156 99.585938 " fill-opacity="1" fill-rule="nonzero"/><path fill="#0f978e" d="M 209.175781 117.726562 L 255.035156 99.585938 L 255.074219 132.335938 L 250.578125 134.085938 Z M 209.175781 117.726562 " fill-opacity="1" fill-rule="nonzero"/></svg>